# xmcd
#
# Track frame offsets:
#	150
#	22662
#	57753
#	71440
#
# Disc length: 1533 seconds
#
# Revision: 1
# Processed by: cddbd v1.5.1PL0 Copyright (c) Steve Scherf et al.
# Submitted via: audiograbber 1.83.01
#
DISCID=2505fb04
DTITLE=Hammock - Stranded Under Endless Sky
DYEAR=2005
DGENRE=Ambient
TTITLE0=Stranded Under Endless Sky
TTITLE1=Birds Flying In Sequence
TTITLE2=Always Wishing You Were Somewhere Else
TTITLE3=An Empty Field
EXTD=
EXTT0=
EXTT1=
EXTT2=
EXTT3=
PLAYORDER=
